#!OML:ASF H:\Terrain\Patient Classification 1\PLAYGROUND\JustinFriday\JustinFriday.ASF
:FULLY-SPECIFIED
:DEGREES
3082
root 12.6548 17.5326 15.3735 -8.25463 51.7981 -11.3497
lowerback 11.5943 -1.08535 3.43894
upperback 3.70523 -0.777389 4.30103
thorax -2.61128 -0.344668 2.6484
lowerneck 6.66255 -16.2593 -12.2862
upperneck 7.49389 -23.9278 21.4045
head 5.3041 -11.8277 7.25532
rclavicle 1.04561e-013 3.97569e-015
rhumerus -62.1705 -36.5997 -22.7352
rradius 32.2155
rwrist -163.08
rhand -26.226 31.2416
rfingers 7.12502
rthumb 0.327494 361.262
lclavicle 1.04561e-013 3.97569e-015
lhumerus -51.8202 36.15 53.4231
lradius 21.8655
lwrist -17.5581
lhand 15.4109 6.49057
lfingers 7.12502
lthumb 40.2383 31.6443
rfemur -10.4316 -4.37259 35.3839
rtibia 34.1753
rfoot -21.2207 -1.34763
rtoes 23.7595
lfemur -10.9735 15.742 -3.41387
ltibia 61.9389
lfoot -182.145 191.02
ltoes 6.86315
3083
root 12.668 17.5403 15.3807 -8.05395 50.5942 -11.3281
lowerback 11.5592 -0.967018 3.38453
upperback 3.73011 -0.634787 4.27807
thorax -2.5688 -0.274945 2.63432
lowerneck 6.53452 -16.2616 -12.3696
upperneck 7.61747 -23.9741 21.5282
head 5.39841 -11.8378 7.28252
rclavicle -3.55825e-014 4.92986e-014
rhumerus -61.5964 -37.6901 -22.6238
rradius 32.3303
rwrist -163.428
rhand -25.5324 30.9535
rfingers 7.12502
rthumb 0.997392 360.976
lclavicle -3.55825e-014 4.92986e-014
lhumerus -50.6833 35.3335 55.2982
lradius 22.614
lwrist -16.4586
lhand 13.2138 6.6082
lfingers 7.12502
lthumb 38.1678 32.3616
rfemur -9.85767 -3.77021 35.5221
rtibia 33.0611
rfoot -20.8283 -0.711716
rtoes 24.5149
lfemur -12.3113 15.4669 -3.1917
ltibia 64.0834
lfoot -180.576 190.458
ltoes 13.9906
3084
root 12.6805 17.5405 15.3918 -8.84862 49.3006 -12.3673
lowerback 11.6165 -0.945948 3.99603
upperback 3.85247 -0.529708 4.44891
thorax -2.47749 -0.218937 2.45497
lowerneck 6.19471 -16.2375 -12.3928
upperneck 7.90086 -23.9771 21.4807
head 5.53891 -11.8075 7.23254
rclavicle -9.51185e-014 7.87187e-014
rhumerus -60.9142 -38.8639 -22.7507
rradius 32.5537
rwrist -163.531
rhand -25.171 30.6255
rfingers 7.12502
rthumb 1.34642 360.65
lclavicle -9.51185e-014 7.87187e-014
lhumerus -50.1122 36.814 54.919
lradius 22.0108
lwrist -18.3481
lhand 11.3711 4.66632
lfingers 7.12502
lthumb 36.4256 30.8771
rfemur -9.19517 -3.14635 36.4473
rtibia 32.2197
rfoot -20.3907 -0.310191
rtoes 24.3351
lfemur -13.4194 15.3221 -2.07375
ltibia 66.0833
lfoot -178.707 189.431
ltoes 16.0083
3085
root 12.6928 17.5329 15.4005 -9.54602 48.0595 -13.2892
lowerback 11.6638 -0.951179 4.57785
upperback 3.97325 -0.465173 4.59449
thorax -2.38007 -0.182352 2.27191
lowerneck 5.95936 -16.1838 -12.2495
upperneck 8.06587 -23.8973 21.3062
head 5.57309 -11.7482 7.14701
rclavicle -1.309e-013 8.07066e-014
rhumerus -60.1219 -40.0967 -23.0003
rradius 32.7162
rwrist -163.47
rhand -25.0173 30.1788
rfingers 7.12502
rthumb 1.49487 360.204
lclavicle -1.309e-013 8.07066e-014
lhumerus -48.2192 35.3017 57.3249
lradius 22.2093
lwrist -16.4161
lhand 9.07886 3.12162
lfingers 7.12502
lthumb 34.2522 29.8491
rfemur -8.61328 -2.63294 37.3028
rtibia 31.559
rfoot -19.9195 0.115577
rtoes 23.7703
lfemur -14.4635 14.7917 -1.11324
ltibia 67.8812
lfoot -177.685 188.045
ltoes 14.4796
3086
root 12.7057 17.533 15.4131 -9.48793 46.8819 -13.3503
lowerback 11.5924 -0.848409 4.50276
upperback 4.05703 -0.347387 4.66687
thorax -2.25328 -0.123024 2.37201
lowerneck 5.84825 -16.1104 -12.31
upperneck 8.18551 -23.8122 21.2375
head 5.61115 -11.6996 7.13325
rclavicle 5.03919e-014 -2.66371e-014
rhumerus -59.7226 -41.7288 -22.6547
rradius 32.7868
rwrist -163.2
rhand -24.6836 29.5423
rfingers 7.12502
rthumb 1.81716 359.57
lclavicle 5.03919e-014 -2.66371e-014
lhumerus -47.1014 34.9793 58.333
lradius 22.1312
lwrist -14.7856
lhand 6.89622 1.12725
lfingers 7.12502
lthumb 32.1769 28.2976
rfemur -8.16051 -1.91709 37.5717
rtibia 30.9957
rfoot -19.5931 0.464449
rtoes 23.8367
lfemur -15.4602 14.012 -0.836398
ltibia 69.4577
lfoot -177.811 186.576
ltoes 13.4724
3087
root 12.7214 17.5423 15.4242 -9.08712 45.7539 -13.0602
lowerback 11.5236 -0.702488 4.20344
upperback 4.03085 -0.196602 4.66981
thorax -2.24395 -0.0515566 2.52212
lowerneck 5.87041 -16.0494 -12.3337
upperneck 8.31282 -23.7332 21.0439
head 5.6092 -11.6637 7.08836
rclavicle 7.41467e-014 -4.96962e-014
rhumerus -59.5901 -43.317 -22.2134
rradius 32.9614
rwrist -163.019
rhand -24.2884 29.2303
rfingers 7.12502
rthumb 2.19881 359.262
lclavicle 7.41467e-014 -4.96962e-014
lhumerus -45.4636 33.5294 60.7055
lradius 22.6493
lwrist -13.6328
lhand 2.84913 0.685901
lfingers 7.12502
lthumb 28.3164 28.5652
rfemur -7.79812 -1.10456 37.5807
rtibia 30.4708
rfoot -19.3979 0.560913
rtoes 22.9179
lfemur -16.4693 13.468 -0.775807
ltibia 70.8255
lfoot -178.807 185.086
ltoes 13.4423
3088
root 12.7356 17.5337 15.4309 -9.0399 44.6313 -13.1332
lowerback 11.582 -0.628646 4.20959
upperback 3.95253 -0.0937403 4.66041
thorax -2.35908 -0.003646 2.49641
lowerneck 6.15868 -15.9294 -12.0336
upperneck 8.19702 -23.5067 20.6939
head 5.40219 -11.5792 7.00524
rclavicle 2.8128e-014 -2.5842e-014
rhumerus -59.3699 -44.6128 -22.2605
rradius 33.1971
rwrist -163.461
rhand -23.6879 29.7623
rfingers 7.12502
rthumb 2.77873 359.801
lclavicle 2.8128e-014 -2.5842e-014
lhumerus -44.2925 32.578 62.0545
lradius 22.9044
lwrist -13.1882
lhand -0.696584 -2.45001
lfingers 7.12502
lthumb 24.923 25.9449
rfemur -7.29217 -0.430434 37.8781
rtibia 29.8362
rfoot -19.2862 0.584968
rtoes 21.9418
lfemur -17.4317 12.9977 -0.433903
ltibia 72.0327
lfoot -179.94 183.534
ltoes 10.7382
3089
root 12.752 17.5331 15.4437 -9.4288 43.4883 -13.5449
lowerback 11.7202 -0.611607 4.51103
upperback 3.97325 -0.0276297 4.68166
thorax -2.41325 0.0293824 2.34206
lowerneck 6.3108 -15.776 -11.7768
upperneck 8.26157 -23.2669 20.4044
head 5.28613 -11.4701 6.93137
rclavicle 3.75703e-014 -4.37326e-015
rhumerus -59.1815 -46.0809 -22.3632
rradius 33.2719
rwrist -163.936
rhand -22.8169 30.3786
rfingers 7.12502
rthumb 3.61993 360.43
lclavicle 3.75703e-014 -4.37326e-015
lhumerus -43.2668 32.2129 62.6002
lradius 23.1765
lwrist -11.7408
lhand -2.93884 -3.79431
lfingers 7.12502
lthumb 22.7727 24.8816
rfemur -6.43876 0.151866 38.4347
rtibia 28.9727
rfoot -19.097 0.700075
rtoes 21.7139
lfemur -18.0379 12.5725 0.295548
ltibia 73.0059
lfoot -180.87 181.742
ltoes 8.61856
3090
root 12.7752 17.5632 15.4659 -9.59512 42.3898 -13.7184
lowerback 11.7407 -0.577631 4.66469
upperback 4.0226 0.0326569 4.70043
thorax -2.37279 0.0600026 2.26724
lowerneck 6.05157 -15.6629 -11.8658
upperneck 8.874 -23.1754 20.1376
head 5.47759 -11.3912 6.83934
rclavicle 4.71617e-014 -3.04141e-014
rhumerus -58.666 -47.3867 -22.7775
rradius 33.2468
rwrist -164.107
rhand -22.0363 30.6105
rfingers 7.12502
rthumb 4.37372 360.676
lclavicle 4.71617e-014 -3.04141e-014
lhumerus -42.258 32.4084 63.0755
lradius 23.1591
lwrist -11.7908
lhand -7.35889 -4.7488
lfingers 7.12502
lthumb 18.5256 24.3891
rfemur -5.5112 0.755939 38.7721
rtibia 27.8775
rfoot -18.7209 0.899454
rtoes 21.2984
lfemur -18.5479 12.038 0.871656
ltibia 73.7364
lfoot -181.907 179.939
ltoes 9.96089
3091
root 12.8001 17.5929 15.4881 -9.80984 41.3342 -14.033
lowerback 11.7759 -0.524831 4.88386
upperback 4.05827 0.133887 4.8457
thorax -2.35442 0.111363 2.2833
lowerneck 5.72304 -15.5647 -11.9821
upperneck 9.38672 -23.069 19.7623
head 5.63802 -11.3107 6.71441
rclavicle -2.33572e-014 -9.54166e-015
rhumerus -57.9918 -48.5814 -23.2943
rradius 33.2576
rwrist -164.255
rhand -21.4789 30.3497
rfingers 7.12502
rthumb 4.91195 360.427
lclavicle -2.33572e-014 -9.54166e-015
lhumerus -40.2827 29.4569 65.9701
lradius 23.7324
lwrist -7.67985
lhand -11.9491 -4.52071
lfingers 7.12502
lthumb 14.106 24.9805
rfemur -4.62285 1.34212 39.1894
rtibia 26.7448
rfoot -18.4475 1.31335
rtoes 21.2886
lfemur -19.1499 11.2709 1.44797
ltibia 74.2647
lfoot -182.88 178.33
ltoes 9.75792
